<svg width="41" height="40" fill="none" xmlns="http://www.w3.org/2000/svg"><path d="M1 16c0-3.785.001-6.574.288-8.712.286-2.123.846-3.528 1.909-4.591C4.26 1.634 5.665 1.074 7.788.788 9.926.501 12.715.5 16.5.5h8c3.785 0 6.574.001 8.712.288 2.123.286 3.528.846 4.591 1.909 1.064 1.063 1.623 2.468 1.909 4.591C39.999 9.426 40 12.215 40 16v8c0 3.785-.001 6.574-.288 8.712-.286 2.123-.846 3.528-1.909 4.591-1.063 1.064-2.468 1.623-4.591 1.909-2.138.287-4.927.288-8.712.288h-8c-3.785 0-6.574-.001-8.712-.288-2.123-.286-3.528-.846-4.591-1.909-1.063-1.063-1.623-2.468-1.909-4.591C1.001 30.574 1 27.785 1 24v-8z" fill="#E42646"/><path d="M1 16c0-3.785.001-6.574.288-8.712.286-2.123.846-3.528 1.909-4.591C4.26 1.634 5.665 1.074 7.788.788 9.926.501 12.715.5 16.5.5h8c3.785 0 6.574.001 8.712.288 2.123.286 3.528.846 4.591 1.909 1.064 1.063 1.623 2.468 1.909 4.591C39.999 9.426 40 12.215 40 16v8c0 3.785-.001 6.574-.288 8.712-.286 2.123-.846 3.528-1.909 4.591-1.063 1.064-2.468 1.623-4.591 1.909-2.138.287-4.927.288-8.712.288h-8c-3.785 0-6.574-.001-8.712-.288-2.123-.286-3.528-.846-4.591-1.909-1.063-1.063-1.623-2.468-1.909-4.591C1.001 30.574 1 27.785 1 24v-8z" stroke="#EAEEF0"/><g clip-path="url(#a)"><mask id="b" style="mask-type:luminance" maskUnits="userSpaceOnUse" x="7" y="14" width="27" height="12"><path d="M33.846 14.648H7.18v10.703h26.666V14.648z" fill="#fff"/></mask><g mask="url(#b)"><mask id="c" style="mask-type:luminance" maskUnits="userSpaceOnUse" x="7" y="14" width="27" height="12"><path d="M33.83 14.656H7.157V25.36h26.675V14.656z" fill="#fff"/></mask><g mask="url(#c)" fill="#fff"><path d="M25.484 22.23a2.97 2.97 0 0 1-.778 2.106 3.022 3.022 0 0 1-1.327.847c-.448.147-.92.204-1.39.168a3.333 3.333 0 0 1-1.67-.557 2.948 2.948 0 0 1-.968-1.095 2.825 2.825 0 0 1-.276-.777 3.601 3.601 0 0 1-.011-1.323c.112-.648.44-1.24.93-1.68a3.097 3.097 0 0 1 1.419-.73c.416-.096.847-.12 1.271-.069a3.33 3.33 0 0 1 1.49.537c.29.195.543.44.745.724a2.958 2.958 0 0 1 .564 1.62c.004.076 0 .152 0 .228zm-1.829 0c0-.271-.041-.532-.158-.778a1.223 1.223 0 0 0-.489-.545 1.477 1.477 0 0 0-1.292-.109c-.238.084-.443.24-.588.445-.149.211-.24.457-.266.714-.04.36-.014.711.143 1.045.119.263.327.476.588.601.329.163.707.197 1.06.095.404-.109.693-.356.863-.739.103-.233.138-.479.14-.728zM18.042 14.664h-1.94v10.694h1.94V14.664z"/><path d="m25.834 18.413.91-.91-.91-.91H14.266v1.82h11.568zM12.7 14.656H9.75L7.157 25.357c0-.005 2.153.006 2.148 0L9.7 23.49h2.437l.363 1.868h2.777L12.7 14.656zm-2.614 7.064c.304-1.48.667-2.945.852-4.443h.045c.173 1.495.506 2.961.789 4.443h-1.687zM31.248 14.656h-2.95l-2.595 10.701c0-.005 2.153.006 2.148 0l.397-1.867h2.436l.364 1.868h2.777l-2.577-10.702zm-2.616 7.064c.304-1.48.668-2.945.853-4.443h.044c.174 1.495.507 2.961.79 4.443h-1.687z"/></g></g></g><defs><clipPath id="a"><path fill="#fff" transform="translate(7.164 14.648)" d="M0 0h26.667v10.703H0z"/></clipPath></defs></svg>