<svg width="27" height="12" fill="none" xmlns="http://www.w3.org/2000/svg"><g clip-path="url(#a)"><mask id="b" style="mask-type:luminance" maskUnits="userSpaceOnUse" x="0" y="0" width="27" height="12"><path d="M26.846.648H.18v10.703h26.666V.648z" fill="#fff"/></mask><g mask="url(#b)"><mask id="c" style="mask-type:luminance" maskUnits="userSpaceOnUse" x="0" y="0" width="27" height="12"><path d="M26.83.656H.157V11.36h26.675V.656z" fill="#fff"/></mask><g fill="#fff" mask="url(#c)"><path d="M18.484 8.23a2.97 2.97 0 0 1-.778 2.106 3.022 3.022 0 0 1-1.327.847c-.448.147-.92.204-1.39.168a3.333 3.333 0 0 1-1.67-.557 2.948 2.948 0 0 1-.969-1.095 2.825 2.825 0 0 1-.275-.777 3.601 3.601 0 0 1-.011-1.323c.112-.648.44-1.24.93-1.68a3.098 3.098 0 0 1 1.419-.73c.416-.096.847-.12 1.271-.069a3.33 3.33 0 0 1 1.49.537c.29.195.543.44.745.724a2.958 2.958 0 0 1 .564 1.62c.004.076 0 .152 0 .228zm-1.829 0c0-.271-.041-.532-.158-.778a1.223 1.223 0 0 0-.489-.545 1.477 1.477 0 0 0-1.292-.109c-.238.084-.443.24-.588.445-.149.211-.24.457-.266.714-.04.36-.014.711.143 1.045.119.263.327.476.588.601.329.163.707.197 1.06.095.404-.109.693-.356.863-.739.103-.233.138-.479.14-.728zM11.042.664h-1.94v10.694h1.94V.664z"/><path d="m18.834 4.413.91-.91-.91-.91H7.266v1.82h11.568zM5.7.656H2.75L.157 11.357c0-.005 2.153.006 2.148 0L2.7 9.49h2.437l.363 1.868h2.777L5.7.656zM3.085 7.72c.305-1.48.668-2.945.853-4.443h.045c.173 1.495.506 2.961.789 4.443H3.085zM24.248.656h-2.95l-2.595 10.701c0-.005 2.153.006 2.148 0l.397-1.867h2.436l.364 1.868h2.777L24.248.656zM21.632 7.72c.304-1.48.668-2.945.853-4.443h.044c.174 1.495.507 2.961.79 4.443h-1.687z"/></g></g></g><defs><clipPath id="a"><path fill="#fff" transform="translate(.164 .648)" d="M0 0h26.667v10.703H0z"/></clipPath></defs></svg>