<svg width="20" height="20" fill="none" xmlns="http://www.w3.org/2000/svg"><path d="M9.292 2.5C5.55 2.5 2.5 5.55 2.5 9.292c0 3.743 3.05 6.792 6.792 6.792a6.757 6.757 0 0 0 4.277-1.522l2.721 2.722a.703.703 0 1 0 .994-.994l-2.722-2.721a6.757 6.757 0 0 0 1.522-4.277c0-3.743-3.049-6.792-6.792-6.792zm0 1.405a5.376 5.376 0 0 1 5.387 5.387 5.365 5.365 0 0 1-1.503 3.734.702.702 0 0 0-.15.15 5.365 5.365 0 0 1-3.734 1.503 5.376 5.376 0 0 1-5.387-5.387 5.376 5.376 0 0 1 5.387-5.387z" fill="#0D1011"/></svg>