<svg width="244" height="291" fill="none" xmlns="http://www.w3.org/2000/svg"><g opacity=".1" clip-path="url(#a)"><path d="M177.028 103.839a1.492 1.492 0 0 1-1.645-1.001c-.276-.817-.659-2.032-1.146-3.572-3.035-9.585-10.133-32.03-20.204-51.114-12.279-23.279-24.584-33.531-36.582-30.493-4.626 1.175-7.755 3.58-9.569 7.36-6.861 14.289 7.125 45.075 16.38 65.446 3.492 7.684 6.507 14.323 7.856 18.728a1.493 1.493 0 1 1-2.853.871c-1.292-4.216-4.271-10.773-7.718-18.364-10.053-22.126-23.819-52.427-16.355-67.973 2.187-4.56 6.066-7.576 11.525-8.962 13.508-3.427 26.948 7.337 39.957 31.993 10.193 19.32 17.349 41.948 20.408 51.608.481 1.523.86 2.727 1.129 3.523a1.494 1.494 0 0 1-1.183 1.95z" fill="#F6F8F9"/><path d="m215.178 192.986-90.401 11.734-26.62-88.48 90.4-11.733 26.621 88.479z" fill="#fff"/><path d="m215.415 194.46-.04.007-90.403 11.737a1.499 1.499 0 0 1-1.62-1.052l-26.621-88.48a1.501 1.501 0 0 1 .176-1.242 1.506 1.506 0 0 1 1.061-.667l90.401-11.734a1.493 1.493 0 0 1 1.622 1.049l26.621 88.479c.125.419.059.873-.176 1.242a1.49 1.49 0 0 1-1.021.661zm-89.572 8.616 87.405-11.345-25.749-85.581-87.404 11.348 25.748 85.578z" fill="#F6F8F9"/><path d="m194.78 91.382-6.219 13.127 26.621 88.479 12.101-26.199-32.503-75.407z" fill="#fff"/><path d="M215.409 194.462a1.486 1.486 0 0 1-1.66-1.046l-26.621-88.476a1.496 1.496 0 0 1 .081-1.071l6.216-13.126a1.493 1.493 0 0 1 2.719.046l32.502 75.407c.168.391.164.832-.016 1.216l-12.1 26.203c-.21.459-.636.77-1.121.847zm-25.257-89.833 25.318 84.162 10.173-22.026-30.933-71.763-4.558 9.627z" fill="#F6F8F9"/><path d="m96.968 109.995 7.836-12.229 91.162-.138-7.839 12.229-91.159.138z" fill="#fff"/><path d="M187.929 112.587h-.04l-91.123-2.571a1.487 1.487 0 0 1-1.288-.817 1.486 1.486 0 0 1 .097-1.518l8.198-11.993a1.493 1.493 0 0 1 1.274-.65l91.123 2.57a1.495 1.495 0 0 1 1.288.817 1.495 1.495 0 0 1-.1 1.519l-8.195 11.993c-.279.406-.74.65-1.234.65zm-88.347-5.479 87.577 2.47 6.195-9.061-87.577-2.471-6.195 9.062z" fill="#F6F8F9"/><path d="M168.793 116.84a1.489 1.489 0 0 1-1.644-.998c-.558-1.652-1.385-5.039-2.531-9.723-5.386-22.043-18.006-73.666-37.679-85.502-3.818-2.297-7.598-2.925-11.552-1.924-4.403 1.117-7.573 3.6-9.692 7.585-9.599 18.062 5.795 60.96 14.066 84.005 1.739 4.845 3.24 9.029 4.122 11.911a1.492 1.492 0 1 1-2.852.874c-.862-2.815-2.353-6.967-4.08-11.777-8.425-23.482-24.108-67.186-13.889-86.413 2.501-4.708 6.401-7.761 11.588-9.078 4.703-1.194 9.352-.433 13.826 2.258 20.74 12.475 33.565 64.947 39.041 87.353 1.084 4.44 1.941 7.947 2.46 9.479a1.494 1.494 0 0 1-1.184 1.95z" fill="#F6F8F9"/><path d="M147.746 117.886a1.493 1.493 0 0 1-1.727-1.526c.02-.523.045-1.198.081-2.014 2.474-60.733-6.948-95.383-26.531-97.569-4.692-.524-8.576.675-11.869 3.668-13.497 12.26-12.924 51.4-12.58 74.785.095 6.507.176 12.127-.053 15.822a1.491 1.491 0 1 1-2.979-.184c.224-3.583.143-9.15.048-15.596-.374-25.434-.936-63.87 13.561-77.038 3.906-3.552 8.685-5.04 14.204-4.425 21.674 2.419 31.764 37.228 29.179 100.659-.031.807-.06 1.476-.078 1.994a1.492 1.492 0 0 1-1.256 1.424z" fill="#F6F8F9"/><path d="M168.976 257.92 48.858 243.894l-.403-135.78 120.118 14.026.403 135.78z" fill="#29333A"/><path d="M169.208 259.397a1.585 1.585 0 0 1-.407.008L48.683 245.377a1.491 1.491 0 0 1-1.321-1.478l-.4-135.781a1.494 1.494 0 0 1 1.665-1.489l120.118 14.028a1.492 1.492 0 0 1 1.321 1.479l.4 135.78c0 .429-.182.834-.498 1.12a1.506 1.506 0 0 1-.76.361zM50.344 242.566l117.132 13.677-.392-132.775-117.132-13.677.392 132.775z" fill="#F6F8F9"/><path d="m168.579 122.14 11.661-10.903 10.872 123.072-22.13 23.611-.403-135.78z" fill="#29333A"/><path d="M169.212 259.397a1.48 1.48 0 0 1-.781-.088 1.485 1.485 0 0 1-.944-1.382l-.401-135.784a1.482 1.482 0 0 1 .474-1.095l11.658-10.903a1.492 1.492 0 0 1 2.505.959l10.871 123.072c.038.424-.107.843-.396 1.154l-22.132 23.614a1.496 1.496 0 0 1-.854.453zm.858-136.612.387 131.374 19.107-20.385-10.546-119.359-8.948 8.37z" fill="#F6F8F9"/><path d="M60.122 97.21 48.46 108.117l120.118 14.025 11.661-10.904L60.122 97.21z" fill="#29333A"/><path d="M168.806 123.615a1.437 1.437 0 0 1-.404.008L48.284 109.598a1.495 1.495 0 0 1-.848-2.576l11.659-10.903c.32-.298.755-.443 1.192-.392l120.118 14.026a1.49 1.49 0 0 1 1.245 1.017 1.491 1.491 0 0 1-.397 1.556l-11.661 10.906a1.486 1.486 0 0 1-.786.383zM51.827 107.003l116.234 13.573 8.801-8.229L60.628 98.775l-8.8 8.228z" fill="#F6F8F9"/><mask id="b" style="mask-type:luminance" maskUnits="userSpaceOnUse" x="31" y="117" width="138" height="160"><path d="m31.39 135.42 114.448-18.1 22.292 140.955-114.448 18.1L31.391 135.42z" fill="#fff"/></mask><g mask="url(#b)"><mask id="c" style="mask-type:luminance" maskUnits="userSpaceOnUse" x="48" y="108" width="121" height="150"><path d="M168.984 257.924 48.865 243.898l-.403-135.78 120.118 14.026.404 135.78z" fill="#fff"/></mask><g mask="url(#c)"><path d="M115.278 278.676a9.938 9.938 0 0 1-9.232-3.493c-3.499-4.235-2.905-10.511 1.329-14.011 18.875-15.613 26.346-30.945 29.288-41.06 3.402-11.694 2.514-22.679-2.437-30.138a22.764 22.764 0 0 0-.82-1.155c-3.605 9.435-10.486 19.042-20.536 28.639-12.171 11.619-25.894 15.6-37.65 10.919-9.822-3.914-16.279-13.205-16.85-24.246-.706-13.692 7.7-26.483 22.483-34.211 10.253-5.364 20.073-8.442 29.328-9.21-14.436-13.084-49.753-15.576-75.61.703-4.648 2.928-10.791 1.527-13.715-3.125-2.928-4.652-1.532-10.798 3.12-13.724 16.819-10.59 37.39-15.64 57.918-14.224 20.361 1.404 37.388 9.09 46.725 21.079 3.303 4.245 5.562 8.888 6.751 13.806a40.318 40.318 0 0 1 15.427 13.739c8.199 12.357 10.01 29.384 4.964 46.716-5.337 18.349-17.685 35.928-35.71 50.836a9.887 9.887 0 0 1-4.776 2.16h.003zm-6.249-97.798c-5.791.916-12.181 3.138-18.959 6.682-7.702 4.028-12.126 9.839-11.831 15.548.164 3.178 1.826 5.772 4.334 6.772 4.16 1.655 10.35-.896 16.563-6.826 5.749-5.492 13.299-13.94 16.136-22.655a37.265 37.265 0 0 0-6.243.479z" fill="#fff"/></g></g><path d="M169.208 259.397a1.585 1.585 0 0 1-.407.008L48.683 245.377a1.491 1.491 0 0 1-1.321-1.478l-.4-135.781a1.494 1.494 0 0 1 1.665-1.489l120.118 14.028a1.492 1.492 0 0 1 1.321 1.479l.4 135.78c0 .429-.182.834-.498 1.12a1.506 1.506 0 0 1-.76.361zM50.344 242.566l117.132 13.677-.392-132.775-117.132-13.677.392 132.775z" fill="#F6F8F9"/><path d="M135.466 127.159a1.49 1.49 0 0 1-1.727-1.525c.048-1.404.265-3.893.566-7.342 2.078-23.856 8.409-96.456-19.45-99.563-4.504-.505-8.414.734-11.951 3.78-16.914 14.577-18.818 64.854-19.732 89.017-.133 3.525-.248 6.571-.388 8.8a1.487 1.487 0 0 1-1.58 1.397 1.488 1.488 0 0 1-1.396-1.582c.134-2.196.249-5.224.382-8.731.93-24.583 2.868-75.74 20.767-91.165 4.141-3.568 8.929-5.078 14.228-4.485 13.324 1.485 21.236 16.21 23.52 43.762 1.811 21.874-.297 46.046-1.427 59.032-.287 3.273-.51 5.857-.556 7.181a1.494 1.494 0 0 1-1.256 1.424z" fill="#F6F8F9"/></g><defs><clipPath id="a"><path fill="#fff" transform="rotate(-8.987 203.736 16.01)" d="M0 0h205v262H0z"/></clipPath></defs></svg>